<svg xmlns="http://www.w3.org/2000/svg" viewBox="0 0 1760 800" width="1760" height="800" role="img" aria-label="Modelo BPMN do fluxo de carrinho, endereco e checkout">
<defs>
<marker id="seqArrow" viewBox="0 0 10 10" refX="9" refY="5" markerWidth="7" markerHeight="7" orient="auto-start-reverse"><path d="M 0 0 L 10 5 L 0 10 z" fill="#1f2933"/></marker>
<marker id="msgArrow" viewBox="0 0 10 10" refX="9" refY="5" markerWidth="9" markerHeight="9" orient="auto-start-reverse"><path d="M 0 0 L 10 5 L 0 10" fill="none" stroke="#3f4c5a" stroke-width="1.4"/></marker>
</defs>
<rect width="1760" height="800" fill="#ffffff"/>
<text x="880.0" y="32.0" text-anchor="middle" font-family="Helvetica,Arial,sans-serif" font-size="17" font-weight="700" fill="#1f2933">BPMN - Fluxo de carrinho, endereco e entrada de checkout - G1_ProjetoComercioEletronico</text>
<rect x="40" y="56" width="1680" height="308" fill="#ffffff" stroke="#1f2933" stroke-width="1.8"/><rect x="40" y="56" width="36" height="308" fill="#eef1f5" stroke="#1f2933" stroke-width="1.8"/><text x="58.0" y="210.0" text-anchor="middle" font-family="Helvetica,Arial,sans-serif" font-size="13" font-weight="700" fill="#1f2933" transform="rotate(-90 58.0 210.0)">Comprador</text>
<rect x="40" y="384" width="1680" height="246" fill="#ffffff" stroke="#1f2933" stroke-width="1.8"/><rect x="40" y="384" width="36" height="246" fill="#eef1f5" stroke="#1f2933" stroke-width="1.8"/><text x="58.0" y="507.0" text-anchor="middle" font-family="Helvetica,Arial,sans-serif" font-size="13" font-weight="700" fill="#1f2933" transform="rotate(-90 58.0 507.0)">G1_ProjetoComercioEletronico</text>
<rect x="40" y="650" width="1680" height="64" fill="#ffffff" stroke="#1f2933" stroke-width="1.8"/><rect x="40" y="650" width="36" height="64" fill="#eef1f5" stroke="#1f2933" stroke-width="1.8"/><text x="58.0" y="682.0" text-anchor="middle" font-family="Helvetica,Arial,sans-serif" font-size="13" font-weight="700" fill="#1f2933" transform="rotate(-90 58.0 682.0)">Vendedor</text><text x="880.0" y="686.0" text-anchor="middle" font-family="Helvetica,Arial,sans-serif" font-size="12" font-weight="400" fill="#5b6570">pool colapsada - processo do vendedor fora do escopo deste recorte</text>
<path d="M 139.0,230.0 L 175.0,230.0" fill="none" stroke="#1f2933" stroke-width="1.8" marker-end="url(#seqArrow)"/>
<path d="M 325.0,230.0 L 365.0,230.0" fill="none" stroke="#1f2933" stroke-width="1.8" marker-end="url(#seqArrow)"/>
<path d="M 515.0,230.0 L 582.0,230.0" fill="none" stroke="#1f2933" stroke-width="1.8" marker-end="url(#seqArrow)"/>
<path d="M 610.0,258.0 L 610.0,288.0" fill="none" stroke="#1f2933" stroke-width="1.8" marker-end="url(#seqArrow)"/><rect x="588.0" y="254.0" width="30" height="16" rx="3" fill="#ffffff"/><text x="602.0" y="266.0" text-anchor="middle" font-family="Helvetica,Arial,sans-serif" font-size="11" font-weight="700" fill="#1f2933">nao</text>
<path d="M 695.0,320.0 L 790.0,320.0 L 790.0,264.0" fill="none" stroke="#1f2933" stroke-width="1.8" marker-end="url(#seqArrow)"/>
<path d="M 638.0,230.0 L 710.0,230.0" fill="none" stroke="#1f2933" stroke-width="1.8" marker-end="url(#seqArrow)"/><rect x="653.0" y="211.0" width="30" height="16" rx="3" fill="#ffffff"/><text x="667.0" y="223.0" text-anchor="middle" font-family="Helvetica,Arial,sans-serif" font-size="11" font-weight="700" fill="#1f2933">sim</text>
<path d="M 870.0,230.0 L 932.0,230.0" fill="none" stroke="#1f2933" stroke-width="1.8" marker-end="url(#seqArrow)"/>
<path d="M 960.0,202.0 L 960.0,152.0" fill="none" stroke="#1f2933" stroke-width="1.8" marker-end="url(#seqArrow)"/><rect x="938.0" y="158.0" width="30" height="16" rx="3" fill="#ffffff"/><text x="952.0" y="170.0" text-anchor="middle" font-family="Helvetica,Arial,sans-serif" font-size="11" font-weight="700" fill="#1f2933">nao</text>
<path d="M 880.0,120.0 L 740.0,120.0 L 740.0,196.0" fill="none" stroke="#1f2933" stroke-width="1.8" marker-end="url(#seqArrow)"/>
<path d="M 988.0,230.0 L 1055.0,230.0" fill="none" stroke="#1f2933" stroke-width="1.8" marker-end="url(#seqArrow)"/><rect x="1000.5" y="211.0" width="30" height="16" rx="3" fill="#ffffff"/><text x="1014.5" y="223.0" text-anchor="middle" font-family="Helvetica,Arial,sans-serif" font-size="11" font-weight="700" fill="#1f2933">sim</text>
<path d="M 1205.0,230.0 L 1281.0,230.0" fill="none" stroke="#1f2933" stroke-width="1.8" marker-end="url(#seqArrow)"/>
<path d="M 164.0,507.0 L 180.0,507.0" fill="none" stroke="#1f2933" stroke-width="1.8" marker-end="url(#seqArrow)"/>
<path d="M 335.0,507.0 L 380.0,507.0" fill="none" stroke="#1f2933" stroke-width="1.8" marker-end="url(#seqArrow)"/>
<path d="M 560.0,507.0 L 605.0,507.0" fill="none" stroke="#1f2933" stroke-width="1.8" marker-end="url(#seqArrow)"/>
<path d="M 775.0,507.0 L 820.0,507.0" fill="none" stroke="#1f2933" stroke-width="1.8" marker-end="url(#seqArrow)"/>
<path d="M 1000.0,507.0 L 1055.0,507.0" fill="none" stroke="#1f2933" stroke-width="1.8" marker-end="url(#seqArrow)"/>
<path d="M 1205.0,507.0 L 1250.0,507.0" fill="none" stroke="#1f2933" stroke-width="1.8" marker-end="url(#seqArrow)"/>
<path d="M 1410.0,507.0 L 1451.0,507.0" fill="none" stroke="#1f2933" stroke-width="1.8" marker-end="url(#seqArrow)"/>
<circle cx="250.0" cy="264.0" r="4" fill="#ffffff" stroke="#1f2933" stroke-width="1.4"/><path d="M 250.0,264.0 L 250.0,473.0" fill="none" stroke="#3f4c5a" stroke-width="1.5" stroke-dasharray="7 5" marker-end="url(#msgArrow)"/><rect x="187.0" y="358.5" width="126.0" height="17" rx="3" fill="#ffffff" stroke="#c3cad3" stroke-width="0.9"/><text x="250.0" y="371.5" text-anchor="middle" font-family="Helvetica,Arial,sans-serif" font-size="10.5" font-weight="400" fill="#3f4c5a">itens selecionados</text>
<circle cx="470.0" cy="473.0" r="4" fill="#ffffff" stroke="#1f2933" stroke-width="1.4"/><path d="M 470.0,473.0 L 440.0,264.0" fill="none" stroke="#3f4c5a" stroke-width="1.5" stroke-dasharray="7 5" marker-end="url(#msgArrow)"/><rect x="409.5" y="358.5" width="91.0" height="17" rx="3" fill="#ffffff" stroke="#c3cad3" stroke-width="0.9"/><text x="455.0" y="371.5" text-anchor="middle" font-family="Helvetica,Arial,sans-serif" font-size="10.5" font-weight="400" fill="#3f4c5a">frete e prazo</text>
<circle cx="610.0" cy="352.0" r="4" fill="#ffffff" stroke="#1f2933" stroke-width="1.4"/><path d="M 610.0,352.0 L 690.0,473.0" fill="none" stroke="#3f4c5a" stroke-width="1.5" stroke-dasharray="7 5" marker-end="url(#msgArrow)"/><rect x="601.0" y="402.5" width="98.0" height="17" rx="3" fill="#ffffff" stroke="#c3cad3" stroke-width="0.9"/><text x="650.0" y="415.5" text-anchor="middle" font-family="Helvetica,Arial,sans-serif" font-size="10.5" font-weight="400" fill="#3f4c5a">CEP e endereco</text>
<circle cx="850.0" cy="264.0" r="4" fill="#ffffff" stroke="#1f2933" stroke-width="1.4"/><path d="M 850.0,264.0 L 880.0,473.0" fill="none" stroke="#3f4c5a" stroke-width="1.5" stroke-dasharray="7 5" marker-end="url(#msgArrow)"/><rect x="802.0" y="358.5" width="126.0" height="17" rx="3" fill="#ffffff" stroke="#c3cad3" stroke-width="0.9"/><text x="865.0" y="371.5" text-anchor="middle" font-family="Helvetica,Arial,sans-serif" font-size="10.5" font-weight="400" fill="#3f4c5a">dados do pagamento</text>
<circle cx="990.0" cy="473.0" r="4" fill="#ffffff" stroke="#1f2933" stroke-width="1.4"/><path d="M 990.0,473.0 L 1010.0,152.0" fill="none" stroke="#3f4c5a" stroke-width="1.5" stroke-dasharray="7 5" marker-end="url(#msgArrow)"/><rect x="951.0" y="302.5" width="98.0" height="17" rx="3" fill="#ffffff" stroke="#c3cad3" stroke-width="0.9"/><text x="1000.0" y="315.5" text-anchor="middle" font-family="Helvetica,Arial,sans-serif" font-size="10.5" font-weight="400" fill="#3f4c5a">erro por campo</text>
<circle cx="1130.0" cy="264.0" r="4" fill="#ffffff" stroke="#1f2933" stroke-width="1.4"/><path d="M 1130.0,264.0 L 1130.0,473.0" fill="none" stroke="#3f4c5a" stroke-width="1.5" stroke-dasharray="7 5" marker-end="url(#msgArrow)"/><rect x="1091.5" y="358.5" width="77.0" height="17" rx="3" fill="#ffffff" stroke="#c3cad3" stroke-width="0.9"/><text x="1130.0" y="371.5" text-anchor="middle" font-family="Helvetica,Arial,sans-serif" font-size="10.5" font-weight="400" fill="#3f4c5a">confirmacao</text>
<circle cx="1330.0" cy="541.0" r="4" fill="#ffffff" stroke="#1f2933" stroke-width="1.4"/><path d="M 1330.0,541.0 L 1330.0,650.0" fill="none" stroke="#3f4c5a" stroke-width="1.5" stroke-dasharray="7 5" marker-end="url(#msgArrow)"/><rect x="1270.5" y="585.5" width="119.0" height="17" rx="3" fill="#ffffff" stroke="#c3cad3" stroke-width="0.9"/><text x="1330.0" y="598.5" text-anchor="middle" font-family="Helvetica,Arial,sans-serif" font-size="10.5" font-weight="400" fill="#3f4c5a">pedido a preparar</text>
<rect x="175.0" y="196.0" width="150" height="68" rx="9" fill="#ffffff" stroke="#1f2933" stroke-width="1.8"/><circle cx="188.0" cy="209.0" r="3.6" fill="none" stroke="#1f2933" stroke-width="1.3"/><path d="M 182.0,218.0 a 6.2,6.2 0 0 1 12.4,0" fill="none" stroke="#1f2933" stroke-width="1.3"/><text x="250.0" y="230.0" text-anchor="middle" font-family="Helvetica,Arial,sans-serif" font-size="12.5" font-weight="600" fill="#1f2933">Adicionar item</text><text x="250.0" y="246.0" text-anchor="middle" font-family="Helvetica,Arial,sans-serif" font-size="12.5" font-weight="600" fill="#1f2933">ao carrinho</text>
<rect x="365.0" y="196.0" width="150" height="68" rx="9" fill="#ffffff" stroke="#1f2933" stroke-width="1.8"/><circle cx="378.0" cy="209.0" r="3.6" fill="none" stroke="#1f2933" stroke-width="1.3"/><path d="M 372.0,218.0 a 6.2,6.2 0 0 1 12.4,0" fill="none" stroke="#1f2933" stroke-width="1.3"/><text x="440.0" y="230.0" text-anchor="middle" font-family="Helvetica,Arial,sans-serif" font-size="12.5" font-weight="600" fill="#1f2933">Revisar itens</text><text x="440.0" y="246.0" text-anchor="middle" font-family="Helvetica,Arial,sans-serif" font-size="12.5" font-weight="600" fill="#1f2933">do carrinho</text>
<rect x="525.0" y="288.0" width="170" height="64" rx="9" fill="#ffffff" stroke="#1f2933" stroke-width="1.8"/><circle cx="538.0" cy="301.0" r="3.6" fill="none" stroke="#1f2933" stroke-width="1.3"/><path d="M 532.0,310.0 a 6.2,6.2 0 0 1 12.4,0" fill="none" stroke="#1f2933" stroke-width="1.3"/><text x="610.0" y="320.0" text-anchor="middle" font-family="Helvetica,Arial,sans-serif" font-size="12.5" font-weight="600" fill="#1f2933">Cadastrar endereco</text><text x="610.0" y="336.0" text-anchor="middle" font-family="Helvetica,Arial,sans-serif" font-size="12.5" font-weight="600" fill="#1f2933">de entrega</text>
<rect x="710.0" y="196.0" width="160" height="68" rx="9" fill="#ffffff" stroke="#1f2933" stroke-width="1.8"/><circle cx="723.0" cy="209.0" r="3.6" fill="none" stroke="#1f2933" stroke-width="1.3"/><path d="M 717.0,218.0 a 6.2,6.2 0 0 1 12.4,0" fill="none" stroke="#1f2933" stroke-width="1.3"/><text x="790.0" y="230.0" text-anchor="middle" font-family="Helvetica,Arial,sans-serif" font-size="12.5" font-weight="600" fill="#1f2933">Informar meio</text><text x="790.0" y="246.0" text-anchor="middle" font-family="Helvetica,Arial,sans-serif" font-size="12.5" font-weight="600" fill="#1f2933">de pagamento</text>
<rect x="880.0" y="88.0" width="160" height="64" rx="9" fill="#ffffff" stroke="#1f2933" stroke-width="1.8"/><circle cx="893.0" cy="101.0" r="3.6" fill="none" stroke="#1f2933" stroke-width="1.3"/><path d="M 887.0,110.0 a 6.2,6.2 0 0 1 12.4,0" fill="none" stroke="#1f2933" stroke-width="1.3"/><text x="960.0" y="120.0" text-anchor="middle" font-family="Helvetica,Arial,sans-serif" font-size="12.5" font-weight="600" fill="#1f2933">Corrigir o campo</text><text x="960.0" y="136.0" text-anchor="middle" font-family="Helvetica,Arial,sans-serif" font-size="12.5" font-weight="600" fill="#1f2933">apontado</text>
<rect x="1055.0" y="196.0" width="150" height="68" rx="9" fill="#ffffff" stroke="#1f2933" stroke-width="1.8"/><circle cx="1068.0" cy="209.0" r="3.6" fill="none" stroke="#1f2933" stroke-width="1.3"/><path d="M 1062.0,218.0 a 6.2,6.2 0 0 1 12.4,0" fill="none" stroke="#1f2933" stroke-width="1.3"/><text x="1130.0" y="230.0" text-anchor="middle" font-family="Helvetica,Arial,sans-serif" font-size="12.5" font-weight="600" fill="#1f2933">Confirmar</text><text x="1130.0" y="246.0" text-anchor="middle" font-family="Helvetica,Arial,sans-serif" font-size="12.5" font-weight="600" fill="#1f2933">a compra</text>
<rect x="180.0" y="473.0" width="170" height="68" rx="9" fill="#ffffff" stroke="#1f2933" stroke-width="1.8"/><circle cx="193.0" cy="488.0" r="6" fill="none" stroke="#1f2933" stroke-width="1.3"/><circle cx="193.0" cy="488.0" r="2.2" fill="none" stroke="#1f2933" stroke-width="1.3"/><text x="265.0" y="507.0" text-anchor="middle" font-family="Helvetica,Arial,sans-serif" font-size="12.5" font-weight="600" fill="#1f2933">Agrupar itens</text><text x="265.0" y="523.0" text-anchor="middle" font-family="Helvetica,Arial,sans-serif" font-size="12.5" font-weight="600" fill="#1f2933">por vendedor</text>
<rect x="380.0" y="473.0" width="180" height="68" rx="9" fill="#ffffff" stroke="#1f2933" stroke-width="1.8"/><circle cx="393.0" cy="488.0" r="6" fill="none" stroke="#1f2933" stroke-width="1.3"/><circle cx="393.0" cy="488.0" r="2.2" fill="none" stroke="#1f2933" stroke-width="1.3"/><text x="470.0" y="507.0" text-anchor="middle" font-family="Helvetica,Arial,sans-serif" font-size="12.5" font-weight="600" fill="#1f2933">Calcular frete e</text><text x="470.0" y="523.0" text-anchor="middle" font-family="Helvetica,Arial,sans-serif" font-size="12.5" font-weight="600" fill="#1f2933">prazo por CEP</text>
<rect x="605.0" y="473.0" width="170" height="68" rx="9" fill="#ffffff" stroke="#1f2933" stroke-width="1.8"/><circle cx="618.0" cy="488.0" r="6" fill="none" stroke="#1f2933" stroke-width="1.3"/><circle cx="618.0" cy="488.0" r="2.2" fill="none" stroke="#1f2933" stroke-width="1.3"/><text x="690.0" y="507.0" text-anchor="middle" font-family="Helvetica,Arial,sans-serif" font-size="12.5" font-weight="600" fill="#1f2933">Validar endereco</text><text x="690.0" y="523.0" text-anchor="middle" font-family="Helvetica,Arial,sans-serif" font-size="12.5" font-weight="600" fill="#1f2933">informado</text>
<rect x="820.0" y="473.0" width="180" height="68" rx="9" fill="#ffffff" stroke="#1f2933" stroke-width="1.8"/><circle cx="833.0" cy="488.0" r="6" fill="none" stroke="#1f2933" stroke-width="1.3"/><circle cx="833.0" cy="488.0" r="2.2" fill="none" stroke="#1f2933" stroke-width="1.3"/><text x="910.0" y="507.0" text-anchor="middle" font-family="Helvetica,Arial,sans-serif" font-size="12.5" font-weight="600" fill="#1f2933">Validar dados</text><text x="910.0" y="523.0" text-anchor="middle" font-family="Helvetica,Arial,sans-serif" font-size="12.5" font-weight="600" fill="#1f2933">na submissao</text>
<rect x="1055.0" y="473.0" width="150" height="68" rx="9" fill="#ffffff" stroke="#1f2933" stroke-width="1.8"/><circle cx="1068.0" cy="488.0" r="6" fill="none" stroke="#1f2933" stroke-width="1.3"/><circle cx="1068.0" cy="488.0" r="2.2" fill="none" stroke="#1f2933" stroke-width="1.3"/><text x="1130.0" y="507.0" text-anchor="middle" font-family="Helvetica,Arial,sans-serif" font-size="12.5" font-weight="600" fill="#1f2933">Registrar</text><text x="1130.0" y="523.0" text-anchor="middle" font-family="Helvetica,Arial,sans-serif" font-size="12.5" font-weight="600" fill="#1f2933">o pedido</text>
<rect x="1250.0" y="473.0" width="160" height="68" rx="9" fill="#ffffff" stroke="#1f2933" stroke-width="1.8"/><circle cx="1263.0" cy="488.0" r="6" fill="none" stroke="#1f2933" stroke-width="1.3"/><circle cx="1263.0" cy="488.0" r="2.2" fill="none" stroke="#1f2933" stroke-width="1.3"/><text x="1330.0" y="507.0" text-anchor="middle" font-family="Helvetica,Arial,sans-serif" font-size="12.5" font-weight="600" fill="#1f2933">Notificar</text><text x="1330.0" y="523.0" text-anchor="middle" font-family="Helvetica,Arial,sans-serif" font-size="12.5" font-weight="600" fill="#1f2933">o vendedor</text>
<circle cx="120" cy="230" r="19" fill="#ffffff" stroke="#1f2933" stroke-width="1.8"/><text x="120.0" y="265.0" text-anchor="middle" font-family="Helvetica,Arial,sans-serif" font-size="11" font-weight="400" fill="#5b6570">Decidiu comprar</text>
<circle cx="1300" cy="230" r="19" fill="#ffffff" stroke="#1f2933" stroke-width="4"/><text x="1300.0" y="265.0" text-anchor="middle" font-family="Helvetica,Arial,sans-serif" font-size="11" font-weight="400" fill="#5b6570">Pedido confirmado</text>
<circle cx="145" cy="507" r="19" fill="#ffffff" stroke="#1f2933" stroke-width="1.8"/><text x="145.0" y="542.0" text-anchor="middle" font-family="Helvetica,Arial,sans-serif" font-size="11" font-weight="400" fill="#5b6570">Carrinho aberto</text>
<circle cx="1470" cy="507" r="19" fill="#ffffff" stroke="#1f2933" stroke-width="4"/><text x="1470.0" y="542.0" text-anchor="middle" font-family="Helvetica,Arial,sans-serif" font-size="11" font-weight="400" fill="#5b6570">Pedido registrado</text>
<polygon points="610,202 638,230 610,258 582,230" fill="#ffffff" stroke="#1f2933" stroke-width="1.8"/><path d="M 602,222 L 618,238 M 618,222 L 602,238" stroke="#1f2933" stroke-width="2.2" fill="none"/><text x="610.0" y="171.0" text-anchor="middle" font-family="Helvetica,Arial,sans-serif" font-size="10.5" font-weight="400" fill="#5b6570">Endereco de</text><text x="610.0" y="184.0" text-anchor="middle" font-family="Helvetica,Arial,sans-serif" font-size="10.5" font-weight="400" fill="#5b6570">entrega definido?</text>
<polygon points="960,202 988,230 960,258 932,230" fill="#ffffff" stroke="#1f2933" stroke-width="1.8"/><path d="M 952,222 L 968,238 M 968,222 L 952,238" stroke="#1f2933" stroke-width="2.2" fill="none"/><text x="960.0" y="278.0" text-anchor="middle" font-family="Helvetica,Arial,sans-serif" font-size="10.5" font-weight="400" fill="#5b6570">Dados do</text><text x="960.0" y="291.0" text-anchor="middle" font-family="Helvetica,Arial,sans-serif" font-size="10.5" font-weight="400" fill="#5b6570">formulario validos?</text>
<path d="M 652,556 L 640,556 L 640,610 L 652,610" fill="none" stroke="#1f2933" stroke-width="1.6"/><text x="654.0" y="578.0" text-anchor="start" font-family="Helvetica,Arial,sans-serif" font-size="11" font-weight="400" fill="#3f4c5a">Validar no servidor: ++ Integridade [Pedido]</text><text x="654.0" y="593.0" text-anchor="start" font-family="Helvetica,Arial,sans-serif" font-size="11" font-weight="400" fill="#3f4c5a">e - Tempo de Resposta [Checkout] - ver SIG</text><line x1="892" y1="583" x2="910" y2="541" stroke="#1f2933" stroke-width="1.3" stroke-dasharray="4 4"/>
<rect x="40" y="726" width="1680" height="58" rx="8" fill="#fafbfc" stroke="#c3cad3" stroke-width="1.2"/><path d="M 64.0,755.0 L 104.0,755.0" fill="none" stroke="#1f2933" stroke-width="1.8" marker-end="url(#seqArrow)"/><text x="118.0" y="759.0" text-anchor="start" font-family="Helvetica,Arial,sans-serif" font-size="11.5" font-weight="400" fill="#3f4c5a">fluxo de sequencia - dentro da pool</text><circle cx="412.0" cy="755.0" r="4" fill="#ffffff" stroke="#1f2933" stroke-width="1.4"/><path d="M 412.0,755.0 L 452.0,755.0" fill="none" stroke="#3f4c5a" stroke-width="1.5" stroke-dasharray="7 5" marker-end="url(#msgArrow)"/><text x="466.0" y="759.0" text-anchor="start" font-family="Helvetica,Arial,sans-serif" font-size="11.5" font-weight="400" fill="#3f4c5a">fluxo de mensagem - entre pools</text><polygon points="743.6,742.0 756.6,755.0 743.6,768.0 730.6,755.0" fill="#ffffff" stroke="#1f2933" stroke-width="1.6"/><path d="M 738.6,750.0 L 748.6,760.0 M 748.6,750.0 L 738.6,760.0" stroke="#1f2933" stroke-width="1.8"/><text x="769.6" y="759.0" text-anchor="start" font-family="Helvetica,Arial,sans-serif" font-size="11.5" font-weight="400" fill="#3f4c5a">gateway exclusivo</text><rect x="926.8" y="742.0" width="30" height="26" rx="5" fill="#ffffff" stroke="#1f2933" stroke-width="1.6"/><circle cx="936.8" cy="751.0" r="3.6" fill="none" stroke="#1f2933" stroke-width="1.3"/><path d="M 930.8,760.0 a 6.2,6.2 0 0 1 12.4,0" fill="none" stroke="#1f2933" stroke-width="1.3"/><text x="970.8" y="759.0" text-anchor="start" font-family="Helvetica,Arial,sans-serif" font-size="11.5" font-weight="400" fill="#3f4c5a">tarefa de usuario</text><rect x="1128.0" y="742.0" width="30" height="26" rx="5" fill="#ffffff" stroke="#1f2933" stroke-width="1.6"/><circle cx="1138.0" cy="753.0" r="6" fill="none" stroke="#1f2933" stroke-width="1.3"/><circle cx="1138.0" cy="753.0" r="2.2" fill="none" stroke="#1f2933" stroke-width="1.3"/><text x="1172.0" y="759.0" text-anchor="start" font-family="Helvetica,Arial,sans-serif" font-size="11.5" font-weight="400" fill="#3f4c5a">tarefa de servico</text><path d="M 1339.2,743.0 L 1329.2,743.0 L 1329.2,767.0 L 1339.2,767.0" fill="none" stroke="#1f2933" stroke-width="1.5"/><text x="1353.2" y="759.0" text-anchor="start" font-family="Helvetica,Arial,sans-serif" font-size="11.5" font-weight="400" fill="#3f4c5a">anotacao de texto</text>
</svg>